<svg width="18" height="18" viewBox="0 0 18 18" fill="none" xmlns="http://www.w3.org/2000/svg">
<path fill-rule="evenodd" clip-rule="evenodd" d="M9 18C13.9706 18 18 13.9706 18 9C18 4.02944 13.9706 0 9 0C4.02944 0 0 4.02944 0 9C0 13.9706 4.02944 18 9 18ZM12.7476 5.1526C12.9177 5.32266 12.9177 5.59837 12.7476 5.76843L9.56584 8.95022L12.7476 12.132C12.9177 12.3021 12.9177 12.5778 12.7476 12.7478C12.5776 12.9179 12.3019 12.9179 12.1318 12.7478L8.95001 9.56605L5.76822 12.7478C5.59817 12.9179 5.32245 12.9179 5.15239 12.7478C4.98234 12.5778 4.98234 12.3021 5.15239 12.132L8.33418 8.95022L5.15239 5.76843C4.98234 5.59837 4.98234 5.32266 5.15239 5.1526C5.32245 4.98254 5.59817 4.98254 5.76822 5.1526L8.95001 8.33439L12.1318 5.1526C12.3019 4.98254 12.5776 4.98254 12.7476 5.1526Z" fill="#A0A0A0"/>
</svg>
