<svg width="24" height="24" viewBox="0 0 24 24" fill="none" xmlns="http://www.w3.org/2000/svg">
<rect width="24" height="24" fill="white"/>
<path d="M10.6245 4.30298L11.1403 4.84744V4.84744L10.6245 4.30298ZM4.62451 9.98719L5.14032 10.5317L4.62451 9.98719ZM13.3755 4.30298L13.8913 3.75851V3.75851L13.3755 4.30298ZM19.3755 9.98719L18.8597 10.5317L19.3755 9.98719ZM14 20.9999H13.25V21.7499H14V20.9999ZM10 20.9999V21.7499H10.75V20.9999H10ZM10.1087 3.75851L4.1087 9.44272L5.14032 10.5317L11.1403 4.84744L10.1087 3.75851ZM13.8913 3.75851C12.8306 2.75367 11.1694 2.75367 10.1087 3.75851L11.1403 4.84744C11.6224 4.3907 12.3776 4.3907 12.8597 4.84744L13.8913 3.75851ZM19.8913 9.44272L13.8913 3.75851L12.8597 4.84744L18.8597 10.5317L19.8913 9.44272ZM20.75 11.4391C20.75 10.684 20.4395 9.96206 19.8913 9.44272L18.8597 10.5317C19.1089 10.7677 19.25 11.0959 19.25 11.4391H20.75ZM20.75 18.9999V11.4391H19.25V18.9999H20.75ZM18 21.7499C19.5188 21.7499 20.75 20.5187 20.75 18.9999H19.25C19.25 19.6902 18.6904 20.2499 18 20.2499V21.7499ZM14 21.7499H18V20.2499H14V21.7499ZM13.25 18V20.9999H14.75V18H13.25ZM13 17.75C13.1381 17.75 13.25 17.8619 13.25 18H14.75C14.75 17.0335 13.9665 16.25 13 16.25V17.75ZM11 17.75H13V16.25H11V17.75ZM10.75 18C10.75 17.8619 10.8619 17.75 11 17.75V16.25C10.0335 16.25 9.25 17.0335 9.25 18H10.75ZM10.75 20.9999V18H9.25V20.9999H10.75ZM6 21.7499H10V20.2499H6V21.7499ZM3.25 18.9999C3.25 20.5187 4.48122 21.7499 6 21.7499V20.2499C5.30964 20.2499 4.75 19.6902 4.75 18.9999H3.25ZM3.25 11.4391V18.9999H4.75V11.4391H3.25ZM4.1087 9.44272C3.56051 9.96206 3.25 10.684 3.25 11.4391H4.75C4.75 11.0959 4.89114 10.7677 5.14032 10.5317L4.1087 9.44272Z" fill="#5A5A5A"/>
</svg>
