<svg width="24" height="24" viewBox="0 0 24 24" fill="none" xmlns="http://www.w3.org/2000/svg">
<rect width="24" height="24" fill="white"/>
<path fill-rule="evenodd" clip-rule="evenodd" d="M9.75 7C9.75 5.75736 10.7574 4.75 12 4.75C13.2426 4.75 14.25 5.75736 14.25 7C14.25 8.24264 13.2426 9.25 12 9.25C10.7574 9.25 9.75 8.24264 9.75 7ZM12 3.25C9.92893 3.25 8.25 4.92893 8.25 7C8.25 9.07107 9.92893 10.75 12 10.75C14.0711 10.75 15.75 9.07107 15.75 7C15.75 4.92893 14.0711 3.25 12 3.25ZM12.0012 11.25C7.55975 11.25 3.8537 14.3968 2.82472 18.6136L2.82466 18.6139C2.44455 20.1702 3.57121 21.7481 5.21027 21.7481H18.0403V21.75H18.7903C20.4307 21.75 21.5534 20.171 21.1761 18.6166L21.1759 18.6157C20.1471 14.3993 16.4431 11.25 12.0012 11.25ZM19.7186 18.971C19.8787 19.6325 19.4162 20.2112 18.8479 20.2481H18.7903H5.21027C4.61474 20.2481 4.11524 19.6515 4.28185 18.9697L4.28191 18.9694C5.15808 15.3785 8.29721 12.75 12.0012 12.75C15.7046 12.75 18.8422 15.3798 19.7186 18.971Z" fill="#5A5A5A"/>
</svg>
